<svg width="465" height="193" viewBox="0 0 465 193" fill="none" xmlns="http://www.w3.org/2000/svg">
<path d="M107.469 68C107.469 58.0589 115.528 50 125.469 50C135.41 50 143.469 58.0589 143.469 68C143.469 77.9411 135.41 86 125.469 86C115.528 86 107.469 77.9411 107.469 68Z" fill="#FF2C2C"/>
<path d="M126.559 93.9771V106.93C126.559 112.669 126.555 116.729 126.292 119.901C126.033 123.024 125.542 124.927 124.766 126.419C123.256 129.326 120.886 131.697 117.978 133.207C116.486 133.983 114.583 134.474 111.46 134.733C108.288 134.996 104.228 135 98.4896 135H86.5383C80.7995 135 76.7399 134.996 73.5683 134.733C70.4446 134.474 68.5423 133.983 67.0498 133.207C64.1424 131.697 61.7718 129.326 60.2615 126.419C59.4862 124.927 58.9953 123.024 58.7358 119.901C58.4725 116.729 58.4692 112.669 58.4692 106.93V94.9793C58.4692 89.2404 58.4725 85.1808 58.7358 82.0092C58.9953 78.8855 59.4862 76.9832 60.2615 75.4907C61.7718 72.5833 64.1424 70.2127 67.0498 68.7024C68.5423 67.9271 70.4446 67.4362 73.5683 67.1768C76.7399 66.9134 80.7994 66.9102 86.5383 66.9102H99.4916C99.6072 64.1061 100.167 61.4166 101.102 58.9102L86.3604 58.9102C80.8395 58.9101 76.4477 58.9101 72.9062 59.2042C69.2789 59.5054 66.1867 60.1358 63.362 61.6031C58.9934 63.8724 55.4315 67.4344 53.1622 71.803C51.6949 74.6276 51.0645 77.7198 50.7633 81.3471C50.4692 84.8886 50.4692 89.2804 50.4692 94.8013V107.108C50.4692 112.629 50.4692 117.021 50.7633 120.563C51.0645 124.19 51.6949 127.282 53.1622 130.107C55.4315 134.475 58.9934 138.037 63.362 140.307C66.1867 141.774 69.2789 142.404 72.9062 142.706C76.4477 143 80.8393 143 86.3602 143H98.6674C104.188 143 108.58 143 112.122 142.706C115.749 142.404 118.841 141.774 121.666 140.307C126.034 138.037 129.596 134.475 131.866 130.107C133.333 127.282 133.963 124.19 134.265 120.563C134.559 117.021 134.559 112.629 134.559 107.109V92.3665C132.052 93.3018 129.363 93.8615 126.559 93.9771Z" fill="black"/>
<path d="M194.954 93.2911C194.954 95.7471 194.362 98.0495 193.178 100.199C192.038 102.348 190.218 104.08 187.718 105.396C185.262 106.711 182.148 107.369 178.376 107.369H170.679V125H161.469V79.0814H178.376C181.929 79.0814 184.955 79.6954 187.455 80.9234C189.954 82.1514 191.818 83.8398 193.046 85.9888C194.318 88.1378 194.954 90.5719 194.954 93.2911ZM177.981 99.9354C180.525 99.9354 182.411 99.3653 183.639 98.225C184.867 97.0408 185.481 95.3962 185.481 93.2911C185.481 88.8176 182.981 86.5809 177.981 86.5809H170.679V99.9354H177.981Z" fill="black"/>
<path d="M208.072 94.2121C209.256 92.2823 210.791 90.7693 212.677 89.6728C214.606 88.5764 216.799 88.0282 219.255 88.0282V97.6987H216.821C213.927 97.6987 211.734 98.3785 210.243 99.738C208.795 101.098 208.072 103.466 208.072 106.843V125H198.862V88.5545H208.072V94.2121Z" fill="black"/>
<path d="M239.01 125.592C235.502 125.592 232.344 124.824 229.537 123.289C226.73 121.71 224.516 119.496 222.893 116.645C221.314 113.794 220.525 110.505 220.525 106.777C220.525 103.049 221.336 99.76 222.959 96.9093C224.625 94.0586 226.884 91.8657 229.735 90.3307C232.585 88.7518 235.765 87.9624 239.274 87.9624C242.782 87.9624 245.962 88.7518 248.813 90.3307C251.663 91.8657 253.9 94.0586 255.523 96.9093C257.189 99.76 258.023 103.049 258.023 106.777C258.023 110.505 257.167 113.794 255.457 116.645C253.79 119.496 251.51 121.71 248.615 123.289C245.764 124.824 242.563 125.592 239.01 125.592ZM239.01 117.566C240.677 117.566 242.234 117.171 243.681 116.382C245.172 115.549 246.357 114.321 247.234 112.698C248.111 111.075 248.549 109.102 248.549 106.777C248.549 103.312 247.628 100.659 245.786 98.817C243.988 96.9312 241.773 95.9883 239.142 95.9883C236.511 95.9883 234.296 96.9312 232.498 98.817C230.743 100.659 229.866 103.312 229.866 106.777C229.866 110.242 230.721 112.917 232.432 114.803C234.186 116.645 236.379 117.566 239.01 117.566Z" fill="black"/>
<path d="M259.779 106.646C259.779 102.962 260.502 99.6942 261.95 96.8435C263.441 93.9928 265.458 91.7999 268.002 90.2649C270.546 88.7299 273.374 87.9624 276.488 87.9624C278.857 87.9624 281.115 88.4887 283.264 89.5413C285.413 90.55 287.124 91.9096 288.395 93.62V76.3184H297.737V125H288.395V119.605C287.255 121.403 285.654 122.851 283.593 123.947C281.532 125.044 279.142 125.592 276.422 125.592C273.352 125.592 270.546 124.802 268.002 123.224C265.458 121.645 263.441 119.43 261.95 116.579C260.502 113.685 259.779 110.373 259.779 106.646ZM288.461 106.777C288.461 104.54 288.023 102.633 287.146 101.054C286.268 99.431 285.084 98.2031 283.593 97.3698C282.102 96.4926 280.501 96.0541 278.791 96.0541C277.08 96.0541 275.501 96.4707 274.054 97.304C272.607 98.1373 271.423 99.3653 270.502 100.988C269.625 102.567 269.186 104.453 269.186 106.646C269.186 108.838 269.625 110.768 270.502 112.435C271.423 114.057 272.607 115.307 274.054 116.184C275.545 117.062 277.124 117.5 278.791 117.5C280.501 117.5 282.102 117.084 283.593 116.25C285.084 115.373 286.268 114.145 287.146 112.566C288.023 110.944 288.461 109.014 288.461 106.777Z" fill="black"/>
<path d="M338.507 88.5545V125H329.231V120.395C328.047 121.974 326.49 123.224 324.56 124.145C322.674 125.022 320.613 125.46 318.376 125.46C315.526 125.46 313.004 124.868 310.811 123.684C308.618 122.456 306.886 120.68 305.614 118.355C304.386 115.987 303.772 113.18 303.772 109.935V88.5545H312.982V108.619C312.982 111.514 313.705 113.75 315.153 115.329C316.6 116.864 318.574 117.632 321.073 117.632C323.617 117.632 325.613 116.864 327.06 115.329C328.507 113.75 329.231 111.514 329.231 108.619V88.5545H338.507Z" fill="black"/>
<path d="M342.594 106.777C342.594 103.005 343.362 99.7161 344.897 96.9093C346.432 94.0586 348.559 91.8657 351.278 90.3307C353.997 88.7518 357.111 87.9624 360.619 87.9624C365.137 87.9624 368.864 89.1027 371.803 91.3833C374.785 93.62 376.781 96.7777 377.789 100.856H367.856C367.329 99.2775 366.43 98.0496 365.159 97.1724C363.931 96.2514 362.396 95.7909 360.554 95.7909C357.922 95.7909 355.839 96.7558 354.304 98.6855C352.769 100.571 352.001 103.269 352.001 106.777C352.001 110.242 352.769 112.939 354.304 114.869C355.839 116.755 357.922 117.698 360.554 117.698C364.281 117.698 366.715 116.031 367.856 112.698H377.789C376.781 116.645 374.785 119.781 371.803 122.105C368.821 124.43 365.093 125.592 360.619 125.592C357.111 125.592 353.997 124.824 351.278 123.289C348.559 121.71 346.432 119.518 344.897 116.711C343.362 113.86 342.594 110.549 342.594 106.777Z" fill="black"/>
<path d="M392.628 96.1198V113.75C392.628 114.978 392.913 115.877 393.483 116.448C394.097 116.974 395.106 117.237 396.51 117.237H400.786V125H394.996C387.234 125 383.352 121.228 383.352 113.685V96.1198H379.011V88.5545H383.352V79.5419H392.628V88.5545H400.786V96.1198H392.628Z" fill="black"/>
<path d="M408.857 125.461C407.191 125.461 405.809 124.956 404.713 123.948C403.66 122.895 403.134 121.601 403.134 120.066C403.134 118.531 403.66 117.259 404.713 116.251C405.809 115.198 407.191 114.672 408.857 114.672C410.48 114.672 411.818 115.198 412.87 116.251C413.923 117.259 414.449 118.531 414.449 120.066C414.449 121.601 413.923 122.895 412.87 123.948C411.818 124.956 410.48 125.461 408.857 125.461Z" fill="#FF2C2C"/>
</svg>
